<svg width="297" height="337" viewBox="0 0 297 337" xmlns="http://www.w3.org/2000/svg"><g fill="none"><path d="M27.142 303.29L.072-.33h297.45l-27.097 303.57-121.81 33.77L27.14 303.29z" fill="#1572B6"/><path d="M148.798 311.2l98.427-27.29 23.157-259.414H148.798V311.2z" fill="#33A9DC"/><path d="M148.797 134.496h49.275l3.403-38.132h-52.678v-37.24h93.375l-.893 9.992-9.153 102.616h-83.33v-37.236z" fill="#fff"/><path d="M149.02 231.204l-.163.046-41.472-11.2-2.652-29.697h-37.38l5.217 58.467 76.278 21.176.172-.048v-38.744z" fill="#EBEBEB"/><path d="M194.907 170.156l-4.484 49.87-41.532 11.21v38.742l76.34-21.158.56-6.29 6.478-72.374h-37.36z" fill="#fff"/><path d="M148.926 59.125v37.24H58.98l-.748-8.37-1.697-18.88-.89-9.99h93.28zm-.13 75.375v37.238H107.85l-.746-8.37-1.698-18.877-.89-9.99h44.28z" fill="#EBEBEB"/></g></svg>