<svg width="297" height="337" viewBox="0 0 297 337" xmlns="http://www.w3.org/2000/svg"><g fill="none"><path d="M27.383 303.266L.313-.354h297.45l-27.098 303.57-121.81 33.77-121.472-33.72z" fill="#E44F26"/><path d="M149.038 311.175l98.427-27.288L270.623 24.47H149.038v286.705z" fill="#F1662A"/><path d="M149.038 137.08H99.763L96.36 98.948h52.678v-37.24H55.663l.892 9.992 9.152 102.616h83.33V137.08zm0 96.708l-.163.046-41.472-11.2-2.652-29.697H67.37l5.218 58.467 76.278 21.176.172-.048v-38.744z" fill="#EBEBEB"/><path d="M148.91 137.08v37.236h45.853l-4.322 48.294-41.53 11.21v38.742l76.34-21.158.558-6.29 8.75-98.035.91-10h-86.56zm0-75.37v37.238h89.946l.747-8.37L241.3 71.7l.89-9.99h-93.28z" fill="#fff"/></g></svg>