<svg width="297" height="337" viewBox="0 0 297 337" xmlns="http://www.w3.org/2000/svg"><g fill="none"><path d="M26.845 303.254L-.225-.368h297.45l-27.098 303.573-121.81 33.77-121.472-33.72z" fill="#EFC725"/><path d="M148.25 310.787l98.428-27.287 23.158-259.417H148.25v286.704z" fill="#FBDE34"/><path d="M148.193 233.426l-.162.047-41.47-11.2-2.654-29.698h-37.38l5.218 58.468 76.277 21.176.173-.05v-38.744zm5.016-59.49V136.7h-45.855l5.377-58.442 40.58-1.08-.103-38.724H79.064l-2.754 27.45-8.75 98.034-.91 10h86.56z" fill="#EBEBEB"/><path d="M152.957 77.23l.163-.047 40.67 2.45 3.452 38.446h37.38l-6.513-71.947-74.98-7.696-.173.048V77.23zm77.827.113l-3.19-38.89H148.99v38.89h81.794M148.064 136.718v37.236h45.854l-4.322 48.293-41.532 11.212v38.74l76.34-21.157.56-6.29 8.75-98.036.91-10h-86.56z" fill="#fff"/></g></svg>