<svg width="74" height="74" viewBox="0 0 74 74" xmlns="http://www.w3.org/2000/svg"><title>sass-icon</title><g fill="none" fill-rule="evenodd"><rect fill="#C69" x=".558" y=".5" width="73" height="73" rx="40"/><path d="M55.13 38.522c-1.607.01-3 .39-4.166.956-.427-.84-.86-1.578-.93-2.127-.086-.64-.184-1.022-.082-1.786.103-.763.55-1.845.544-1.926-.006-.08-.1-.47-1.027-.476-.928-.007-1.72.175-1.814.417-.094.24-.272.783-.383 1.35-.162.827-1.85 3.78-2.81 5.327-.313-.603-.58-1.135-.635-1.556-.085-.64-.183-1.022-.08-1.786.102-.763.55-1.845.543-1.926-.005-.08-.1-.47-1.026-.476-.927-.007-1.72.176-1.813.417-.093.24-.192.803-.382 1.35-.19.544-2.434 5.472-3.022 6.75-.3.65-.56 1.173-.744 1.53v-.002l-.032.064c-.158.304-.25.472-.25.472v.006c-.124.223-.257.43-.324.43-.046 0-.14-.593.02-1.41.334-1.708 1.137-4.374 1.13-4.466-.005-.047.148-.512-.525-.754-.653-.236-.886.157-.946.158-.058.002-.1.14-.1.14s.728-3-1.39-3c-1.326 0-3.16 1.43-4.065 2.724a1255.825 1255.825 0 0 0-4.576 2.47l-.098-.106c-2.57-2.7-7.32-4.612-7.118-8.243.074-1.32.54-4.797 9.126-9.014 7.035-3.456 12.666-2.505 13.64-.398 1.39 3.01-3.01 8.604-10.315 9.41-2.785.308-4.25-.755-4.615-1.15-.384-.418-.44-.437-.584-.358-.233.127-.085.495 0 .714.22.56 1.114 1.552 2.64 2.045 1.342.435 4.61.673 8.562-.833 4.426-1.688 7.882-6.38 6.867-10.305-1.033-3.99-7.747-5.302-14.1-3.077-3.782 1.324-7.875 3.402-10.82 6.115-3.498 3.226-4.057 6.034-3.827 7.207.818 4.17 6.648 6.883 8.982 8.895-.115.063-.223.12-.32.175-1.172.57-5.616 2.863-6.728 5.284-1.26 2.747.2 4.718 1.17 4.984 2.997.822 6.074-.657 7.727-3.087 1.654-2.43 1.452-5.593.693-7.038l-.03-.053c.303-.177.61-.357.916-.533.596-.345 1.18-.667 1.688-.94-.283.768-.49 1.687-.6 3.014-.126 1.56.523 3.576 1.37 4.37.375.348.824.357 1.11.357.987 0 1.437-.81 1.933-1.768.61-1.175 1.15-2.542 1.15-2.542s-.68 3.693 1.167 3.693c.673 0 1.35-.86 1.65-1.297l.002.008.052-.085c.07-.106.11-.173.11-.173l.003-.02c.27-.46.87-1.516 1.77-3.255 1.16-2.248 2.276-5.063 2.276-5.063s.103.688.443 1.826c.2.67.624 1.41.96 2.12-.27.37-.436.58-.436.58s0 .004.004.01a21.7 21.7 0 0 1-.71.884c-.917 1.076-2.01 2.305-2.155 2.66-.174.418-.133.726.2.973.244.18.677.21 1.128.18.824-.056 1.404-.257 1.69-.38.446-.155.966-.4 1.453-.753.9-.652 1.443-1.584 1.39-2.82-.028-.68-.248-1.354-.526-1.99.08-.117.163-.234.245-.352 1.417-2.043 2.517-4.288 2.517-4.288s.104.688.444 1.826c.173.576.512 1.205.817 1.82-1.334 1.07-2.16 2.31-2.448 3.124-.532 1.505-.116 2.187.664 2.343.353.07.852-.09 1.227-.246a5.72 5.72 0 0 0 1.554-.786c.9-.652 1.764-1.564 1.712-2.8-.024-.56-.178-1.12-.388-1.656 1.13-.464 2.594-.722 4.458-.507 4 .46 4.783 2.922 4.633 3.952-.15 1.03-.99 1.596-1.27 1.767-.28.17-.366.23-.342.356.034.185.163.178.403.138.33-.055 2.1-.838 2.176-2.74.097-2.412-2.25-5.064-6.406-5.042zM24.306 48.764c-1.325 1.424-3.175 1.962-3.97 1.51-.856-.49-.517-2.588 1.11-4.1.99-.92 2.27-1.768 3.117-2.29l.822-.487.09-.05-.002-.002c.066-.04.135-.08.205-.12.592 2.15.018 4.044-1.372 5.54zm9.65-6.466c-.462 1.11-1.427 3.945-2.015 3.793-.503-.13-.81-2.285-.1-4.407.358-1.068 1.123-2.344 1.572-2.84.723-.796 1.52-1.057 1.712-.734.247.41-.88 3.494-1.168 4.188zm7.972 3.75c-.195.1-.375.164-.458.115-.06-.036.08-.17.08-.17s.998-1.056 1.39-1.538c.23-.28.494-.612.783-.984l.003.112c-.003 1.266-1.244 2.122-1.798 2.465zm6.142-1.38c-.146-.103-.122-.433.358-1.464.19-.404.618-1.085 1.365-1.736.087.268.14.525.138.764-.008 1.593-1.162 2.19-1.86 2.436z" fill="#FFF"/></g></svg>