<svg xmlns="http://www.w3.org/2000/svg" viewBox="0 0 48 48"><linearGradient id="a" gradientUnits="userSpaceOnUse" x1="24" x2="24" y2="48.001"><stop offset="0" stop-color="#4bd0ef"/><stop offset="1" stop-color="#29aae1"/></linearGradient><path fill-rule="evenodd" clip-rule="evenodd" fill="url(#a)" d="M48 42a6 6 0 0 1-6 6H6a6 6 0 0 1-6-6V6a6 6 0 0 1 6-6h36a6 6 0 0 1 6 6v36z"/><circle fill-rule="evenodd" clip-rule="evenodd" fill="#29AAE1" cx="24.639" cy="22.507" r="14.729"/><circle fill-rule="evenodd" clip-rule="evenodd" fill="#29AAE1" cx="30.959" cy="26.924" r="9.311"/><circle fill-rule="evenodd" clip-rule="evenodd" fill="#29AAE1" cx="17.416" cy="16.187" r="9.311"/><circle fill-rule="evenodd" clip-rule="evenodd" fill="#FFF" cx="24.639" cy="24.312" r="14.729"/><circle fill-rule="evenodd" clip-rule="evenodd" fill="#FFF" cx="31.057" cy="31.438" r="9.312"/><circle fill-rule="evenodd" clip-rule="evenodd" fill="#FFF" cx="17.416" cy="17.992" r="9.311"/><path fill="#29AAE1" d="M30.65 33.02c1.38-1.147 2.07-2.587 2.07-4.32 0-1.365-.377-2.454-1.13-3.267a6.85 6.85 0 0 0-2.71-1.795c-1.053-.384-2.477-.774-4.27-1.168-1.792-.394-3.017-.802-3.672-1.224-.656-.42-.983-1.054-.983-1.898 0-.926.408-1.668 1.224-2.228s1.966-.84 3.452-.84c3.07 0 4.74 1.22 5.006 3.66 0 0 .08.998 1.33.998s1.27-.998 1.27-.998c-.082-1.925-.82-3.416-2.215-4.47-1.394-1.054-3.228-1.582-5.5-1.582-2.165 0-3.9.522-5.207 1.568-1.307 1.045-1.96 2.384-1.96 4.016 0 1.45.502 2.608 1.506 3.48 1.004.87 2.66 1.55 4.965 2.04 2.306.49 3.932.99 4.875 1.493.944.504 1.417 1.312 1.417 2.42 0 1.056-.457 1.89-1.37 2.504-.912.613-2.115.92-3.61.92-1.576 0-2.922-.36-4.036-1.08-1.114-.718-1.74-1.83-1.877-3.335 0 0 .1-1.197-1.4-1.197-1.177 0-1.172 1.197-1.172 1.197.073 2 .813 3.637 2.22 4.91 1.408 1.275 3.533 1.912 6.376 1.912 2.22 0 4.02-.573 5.4-1.718z"/></svg>