<svg xmlns="http://www.w3.org/2000/svg" viewBox="456 256 48 48"><linearGradient id="a" gradientUnits="userSpaceOnUse" x1="351.366" y1="312.875" x2="351.366" y2="301.375" gradientTransform="matrix(4.1667 0 0 -4.1667 -983.994 1559.654)"><stop offset="0" stop-color="#242424"/><stop offset="1" stop-color="#141414"/></linearGradient><path fill="url(#a)" d="M504 297.928a5.99 5.99 0 0 1-5.99 5.99h-35.937a5.99 5.99 0 0 1-5.99-5.99V261.99a5.99 5.99 0 0 1 5.99-5.99h35.938a5.99 5.99 0 0 1 5.99 5.99v35.938z"/><path d="M490.648 273.344s-2.722-4.108-8.13-2.144c-2.233.75-3.42.465-4.814-.07-1.397-.537-4.33-1.394-7.467 2.356-3.14 3.752-1.116 10.36-.384 12.074s3.698 8.717 8.48 6.145c4.08-2.25 6.035 3.215 9.836-1.144 0 0 2.302-2.713 3.21-5.82 0 0-3.698-1.644-3.698-6.002 0-3.966 2.966-5.394 2.966-5.394z"/><path d="M485.553 263.664s-5.545.357-5.617 6.608c0 0 5.512.036 5.617-6.608z"/><path fill="#FFF" d="M490.648 274.786s-2.722-4.013-8.13-2.094c-2.233.733-3.42.454-4.814-.07-1.397-.523-4.33-1.36-7.467 2.303-3.14 3.665-1.116 10.12-.384 11.793s3.698 8.514 8.48 6c4.08-2.196 6.035 3.142 9.836-1.115 0 0 2.302-2.65 3.21-5.688 0 0-3.698-1.604-3.698-5.86 0-3.874 2.966-5.27 2.966-5.27z"/><path fill="#FFF" d="M485.553 265.33s-5.545.35-5.617 6.456c0 0 5.512.034 5.617-6.455z"/></svg>