<svg xmlns="http://www.w3.org/2000/svg" viewBox="176 176 48 48"><linearGradient id="a" gradientUnits="userSpaceOnUse" x1="341.774" y1="90.97" x2="341.774" y2="92.347" gradientTransform="translate(-11666.8 -2982.078) scale(34.7225)"><stop offset="0" stop-color="#2f93ef"/><stop offset="1" stop-color="#2f77ef"/></linearGradient><path fill="url(#a)" d="M224.345 218.467c0 3.3-2.678 5.975-5.976 5.975h-35.857a5.977 5.977 0 0 1-5.977-5.975V182.61c0-3.3 2.676-5.977 5.977-5.977h35.856c3.3 0 5.975 2.677 5.975 5.977v35.857z"/><path fill="#2F6FEF" d="M206.653 202.65a5.33 5.33 0 0 0-1.887-.45 75.886 75.886 0 0 1-2.213-.123 58.032 58.032 0 0 0-2.458-.12c-.558-.015-1.1-.036-1.622-.064a6.312 6.312 0 0 1-1.377-.203 2.236 2.236 0 0 1-1.04-.542c-.287-.264-.43-.648-.43-1.152 0-.49.17-.878.51-1.162.34-.285.666-.482.98-.592h2.467c1.903 0 3.574-.612 5.008-1.835 1.437-1.224 2.153-2.72 2.153-4.488a6.37 6.37 0 0 0-.366-2.083 5.923 5.923 0 0 0-1.123-1.938v-.123h4.733v-1.958h-7.02c-.624-.19-1.24-.348-1.845-.47a9.226 9.226 0 0 0-1.826-.184c-2.217 0-4.037.612-5.457 1.836-1.422 1.225-2.133 2.788-2.133 4.692 0 1.266.36 2.377 1.08 3.335.72.958 1.734 1.744 3.04 2.356v.306c-1.033.435-1.804.956-2.315 1.56-.51.606-.765 1.27-.765 1.99 0 .57.11 1.05.327 1.438s.503.725.857 1.01c.313.245.687.46 1.123.643.435.183.857.337 1.264.46v.284c-1.686.07-3.074.504-4.162 1.305-1.088.803-1.632 1.897-1.632 3.286 0 1.713.756 3.014 2.265 3.906 1.508.893 3.787 1.338 6.833 1.338 1.864 0 3.428-.178 4.694-.53 1.266-.356 2.353-.853 3.264-1.49.856-.627 1.496-1.365 1.92-2.215a6.05 6.05 0 0 0 .632-2.724c0-.966-.157-1.774-.47-2.428a5.967 5.967 0 0 0-1.284-1.755 6.036 6.036 0 0 0-1.723-1.12zm-4.733-7.233c-.633.946-1.533 1.417-2.702 1.417-1.047 0-1.9-.475-2.56-1.427-.66-.952-.99-2.183-.99-3.693 0-.666.058-1.316.173-1.948.116-.633.31-1.174.583-1.622.286-.49.657-.867 1.112-1.132.455-.265 1.002-.398 1.642-.398 1.168 0 2.076.473 2.723 1.418.645.945.97 2.213.97 3.804 0 1.44-.316 2.635-.95 3.58zm3.142 16.79c-1.148.77-2.724 1.152-4.722 1.152-1.156 0-2.135-.112-2.94-.337-.8-.224-1.44-.514-1.916-.868-.503-.366-.857-.768-1.06-1.203a3.183 3.183 0 0 1-.307-1.367c0-1.06.31-1.927.93-2.6s1.662-1.155 3.13-1.44c1.564 0 2.94.035 4.12.102 1.185.07 1.968.13 2.35.184.72.177 1.256.51 1.612 1.002.352.49.528 1.113.528 1.876-.002 1.563-.576 2.73-1.726 3.498z"/><path fill="#FFF" d="M206.653 203.65a5.33 5.33 0 0 0-1.887-.45 75.886 75.886 0 0 1-2.213-.123 58.032 58.032 0 0 0-2.458-.12c-.558-.015-1.1-.036-1.622-.064a6.312 6.312 0 0 1-1.377-.203 2.236 2.236 0 0 1-1.04-.542c-.287-.264-.43-.648-.43-1.152 0-.49.17-.878.51-1.162.34-.285.666-.482.98-.592h2.467c1.903 0 3.574-.612 5.008-1.835 1.437-1.224 2.153-2.72 2.153-4.488a6.37 6.37 0 0 0-.366-2.083 5.923 5.923 0 0 0-1.123-1.938v-.123h4.733v-1.958h-7.02c-.624-.19-1.24-.348-1.845-.47a9.226 9.226 0 0 0-1.826-.184c-2.217 0-4.037.612-5.457 1.836-1.422 1.225-2.133 2.788-2.133 4.692 0 1.266.36 2.377 1.08 3.335.72.958 1.734 1.744 3.04 2.356v.306c-1.033.435-1.804.956-2.315 1.56-.51.606-.765 1.27-.765 1.99 0 .57.11 1.05.327 1.438s.503.725.857 1.01c.313.245.687.46 1.123.643.435.183.857.337 1.264.46v.284c-1.686.07-3.074.504-4.162 1.305-1.088.803-1.632 1.897-1.632 3.286 0 1.713.756 3.014 2.265 3.906 1.508.893 3.787 1.338 6.833 1.338 1.864 0 3.428-.178 4.694-.53 1.266-.356 2.353-.853 3.264-1.49.856-.627 1.496-1.365 1.92-2.215a6.05 6.05 0 0 0 .632-2.724c0-.966-.157-1.774-.47-2.428a5.967 5.967 0 0 0-1.284-1.755 6.036 6.036 0 0 0-1.723-1.12zm-4.733-7.233c-.633.946-1.533 1.417-2.702 1.417-1.047 0-1.9-.475-2.56-1.427-.66-.952-.99-2.183-.99-3.693 0-.666.058-1.316.173-1.948.116-.633.31-1.174.583-1.622.286-.49.657-.867 1.112-1.132.455-.265 1.002-.398 1.642-.398 1.168 0 2.076.473 2.723 1.418.645.945.97 2.213.97 3.804 0 1.44-.316 2.635-.95 3.58zm3.142 16.79c-1.148.77-2.724 1.152-4.722 1.152-1.156 0-2.135-.112-2.94-.337-.8-.224-1.44-.514-1.916-.868-.503-.366-.857-.768-1.06-1.203a3.183 3.183 0 0 1-.307-1.367c0-1.06.31-1.927.93-2.6s1.662-1.155 3.13-1.44c1.564 0 2.94.035 4.12.102 1.185.07 1.968.13 2.35.184.72.177 1.256.51 1.612 1.002.352.49.528 1.113.528 1.876-.002 1.563-.576 2.73-1.726 3.498z"/></svg>