<svg xmlns="http://www.w3.org/2000/svg" viewBox="0 0 48 48"><linearGradient id="a" gradientUnits="userSpaceOnUse" x1="24" x2="24" y2="48.001"><stop offset="0" stop-color="#4bd0ef"/><stop offset="1" stop-color="#29aae1"/></linearGradient><path fill-rule="evenodd" clip-rule="evenodd" fill="url(#a)" d="M48 42a6 6 0 0 1-6 6H6a6 6 0 0 1-6-6V6a6 6 0 0 1 6-6h36a6 6 0 0 1 6 6v36z"/><path fill="#29AAE1" d="M40.23 13.413a12.47 12.47 0 0 1-3.587.984 6.267 6.267 0 0 0 2.747-3.457 12.48 12.48 0 0 1-3.968 1.516 6.238 6.238 0 0 0-4.56-1.972 6.246 6.246 0 0 0-6.246 6.247c0 .49.055.967.16 1.425a17.74 17.74 0 0 1-12.875-6.528 6.217 6.217 0 0 0-.845 3.14 6.242 6.242 0 0 0 2.78 5.2 6.22 6.22 0 0 1-2.83-.78v.078a6.25 6.25 0 0 0 5.01 6.125 6.328 6.328 0 0 1-2.822.11 6.256 6.256 0 0 0 5.834 4.337 12.538 12.538 0 0 1-9.25 2.586 17.68 17.68 0 0 0 9.577 2.808c11.49 0 17.774-9.518 17.774-17.773 0-.27-.007-.54-.02-.81a12.664 12.664 0 0 0 3.12-3.234z"/><path fill="#FFF" d="M40.23 14.74a12.47 12.47 0 0 1-3.587.983 6.265 6.265 0 0 0 2.747-3.456 12.48 12.48 0 0 1-3.968 1.516 6.238 6.238 0 0 0-4.56-1.972 6.246 6.246 0 0 0-6.246 6.248c0 .49.055.966.16 1.424a17.738 17.738 0 0 1-12.875-6.527 6.217 6.217 0 0 0-.845 3.14 6.244 6.244 0 0 0 2.78 5.2 6.22 6.22 0 0 1-2.83-.78v.078a6.25 6.25 0 0 0 5.01 6.125 6.328 6.328 0 0 1-2.822.11 6.255 6.255 0 0 0 5.834 4.337 12.532 12.532 0 0 1-9.25 2.586 17.68 17.68 0 0 0 9.577 2.81c11.49 0 17.774-9.52 17.774-17.775 0-.27-.007-.54-.02-.808a12.725 12.725 0 0 0 3.12-3.238z"/></svg>