<svg xmlns="http://www.w3.org/2000/svg" viewBox="456 256 48 48"><linearGradient id="a" gradientUnits="userSpaceOnUse" x1="351.366" y1="312.875" x2="351.366" y2="301.375" gradientTransform="matrix(4.1667 0 0 -4.1667 -983.994 1559.654)"><stop offset="0" stop-color="#f93c2d"/><stop offset="1" stop-color="#d32d20"/></linearGradient><path fill="url(#a)" d="M504 297.928a5.99 5.99 0 0 1-5.99 5.99h-35.937a5.99 5.99 0 0 1-5.99-5.99V261.99a5.99 5.99 0 0 1 5.99-5.99h35.938a5.99 5.99 0 0 1 5.99 5.99v35.938z"/><path fill="#CD2D20" d="M478.5 263.667l-2.708 2.583 3.75 3.75s1.21-.583 2.563.48c1.25.978.666 2.645.666 2.645l3.668 3.52s1.75-.54 2.792.813.46 2.625-.146 3.25-2.396 1.188-3.584-.02-.562-2.668-.562-2.668l-3.416-3.27v8.708s1.396.582 1.396 2.23-1.52 2.395-2.667 2.395-2.395-1-2.395-2.562 1.583-2.166 1.583-2.166v-8.75s-2.188-.958-1.396-3.25l-3.77-3.625-9.543 9.207s-2.074 1.553.082 3.71 13.958 13.478 13.958 13.478 1.52 1.604 3.27-.104 14.126-13.624 14.126-13.624 1.583-1.625.146-3-14.604-14.083-14.604-14.083-1.29-1.334-3.208.354z"/><path fill="#FFF" d="M478.5 265.667l-2.708 2.583 3.75 3.75s1.21-.583 2.563.48c1.25.978.666 2.645.666 2.645l3.668 3.52s1.75-.54 2.792.813.46 2.625-.146 3.25-2.396 1.188-3.584-.02-.562-2.668-.562-2.668l-3.416-3.27v8.708s1.396.582 1.396 2.23-1.52 2.395-2.667 2.395-2.395-1-2.395-2.562 1.583-2.166 1.583-2.166v-8.75s-2.188-.958-1.396-3.25l-3.77-3.625-9.543 9.207s-2.074 1.553.082 3.71 13.958 13.478 13.958 13.478 1.52 1.604 3.27-.104 14.126-13.624 14.126-13.624 1.583-1.625.146-3-14.604-14.083-14.604-14.083-1.29-1.334-3.208.354z"/></svg>