<svg xmlns="http://www.w3.org/2000/svg" viewBox="176 76 48 48"><linearGradient id="a" gradientUnits="userSpaceOnUse" x1="71.366" y1="132.875" x2="71.366" y2="121.375" gradientTransform="matrix(4.1667 0 0 -4.1667 -97.318 629.646)"><stop offset="0" stop-color="#f5f5f5"/><stop offset=".276" stop-color="#EEE"/><stop offset=".668" stop-color="#dcdcdc"/><stop offset=".829" stop-color="#d2d2d2"/></linearGradient><path fill="url(#a)" d="M224 117.928a5.99 5.99 0 0 1-5.99 5.99h-35.937a5.99 5.99 0 0 1-5.99-5.99V81.99a5.99 5.99 0 0 1 5.99-5.99h35.938a5.99 5.99 0 0 1 5.99 5.99v35.938z"/><path opacity=".05" d="M220.654 121.186a6.11 6.11 0 0 1-.305-.412c-.99-1.5-1.97-3.048-2.955-4.606-1.34-1.896-2.66-3.772-4.264-5.465-.732-.773-1.145-1.613-1.313-2.454-1.72-2.37-3.482-4.707-5.353-6.964-.15-.18-.28-.365-.4-.55-.394-.402-.774-.817-1.183-1.2-.097-.09-.18-.186-.268-.28-.658.56-1.3 1.147-1.91 1.78-2.292 2.36-5.246 1.678-7-.168-.088 0-.175-.008-.263-.01-.912 1.022-1.82 2.048-2.718 3.096-1.676 1.96-3.278 3.98-4.892 5.987-.956 1.66-2.282 3.057-3.61 4.44-.123.377-.263.752-.49 1.057a34.22 34.22 0 0 1-.855 1.113c-.19.15-.383.295-.574.442-1.147 2.01-2.526 3.826-4.052 5.543a5.97 5.97 0 0 0 3.824 1.38h35.938c1.358 0 2.593-.474 3.597-1.236a4.79 4.79 0 0 1-.953-1.494z"/><path opacity=".4" fill="#FFF" d="M179.808 84.91c1.984 1.964 4 3.663 5.802 5.737l.176.15-.025.02c.235.274.463.557.69.846 3.333 3.1 7.496 5.558 10.63 8.936.82.883 1.917 2.05 2.866 3.348.228-.747.688-1.48 1.436-2.148 4.773-4.26 9.473-8.61 14.184-12.937 2.618-2.405 5.312-5.342 8.413-7.288A5.987 5.987 0 0 0 218.01 76h-35.937a5.99 5.99 0 0 0-5.95 5.313c1.292 1.04 2.356 2.28 3.685 3.596z"/><path fill="#BCBCBC" d="M176.115 81.374L200 101.96l23.97-20.586L200 105.25z"/><path fill="#BCBCBC" d="M221.672 122.718l-17.484-21.968 1.78-1.656zM178.346 122.718l17.685-21.906-1.655-1.718z"/></svg>