<svg xmlns="http://www.w3.org/2000/svg" viewBox="0 0 611 611"><linearGradient id="a" gradientUnits="userSpaceOnUse" x1="342.777" y1="314.278" x2="342.777" y2="302.778" gradientTransform="matrix(53.0386 0 0 -53.0386 -17874.906 16669.43)"><stop offset="0" stop-color="#004889"/><stop offset="1" stop-color="#00346e"/></linearGradient><path fill="url(#a)" d="M610.553 534.237c0 42.095-34.152 76.234-76.234 76.234H76.856C34.75 610.47.61 576.32.61 534.238V76.777C.61 34.68 34.75.526 76.856.526h457.46c42.097 0 76.235 34.153 76.235 76.25v457.46z"/><path fill="#FFF" d="M247.434 75.51c64.593-6.112 130.795-3.273 193.46 14.485 22.37 7.24 46.774 15.562 61.586 34.98 7.188 8.475 4.186 19.906 3.106 29.83-10.08 62.66-20.922 125.216-31.702 187.717-3.43 18.075-21.09 28.057-35.842 36.265-53.753 26.446-115.825 30.85-174.677 25.157-39.485-5.144-80.845-14.428-112.604-39.858-15.557-11.157-14.697-31.652-18.187-48.438-9.338-58.96-21.406-117.546-28.544-176.72 3.54-25.805 32.513-36.323 53.76-44.903C186.7 83.988 217.015 78.57 247.433 75.51z"/><linearGradient id="b" gradientUnits="userSpaceOnUse" x1="174.166" y1="387.883" x2="438.009" y2="387.883" gradientTransform="matrix(1 0 0 -1 -.5 520.5)"><stop offset="0" stop-color="#004889"/><stop offset="1" stop-color="#00346e"/></linearGradient><path fill="url(#b)" d="M222.538 111.562c53.596-8.532 108.532-8.37 162.18-.373 18.726 3.697 40.343 6.06 52.79 22.422-17.703 17.865-44.26 19.258-67.7 23.067-42.603 4.614-85.784 4.453-128.382-.215-23.498-3.536-49.518-5.686-67.76-22.854 11.057-15.878 31.385-18.345 48.872-22.048z"/><linearGradient id="c" gradientUnits="userSpaceOnUse" x1="242.068" y1="223.386" x2="370.256" y2="223.386" gradientTransform="matrix(1 0 0 -1 -.5 520.5)"><stop offset="0" stop-color="#004889"/><stop offset="1" stop-color="#00346e"/></linearGradient><path fill="url(#c)" d="M280.483 238.116c37.018-17.487 84.813 10.09 88.52 50.646 5.795 34.872-22.646 70.173-57.78 72.314-34.763 4.135-68.994-25.536-69.48-60.563-2.087-26.34 14.6-52.358 38.74-62.397z"/><path fill="#FFF" d="M290.51 268.757c19.104-11.59 46.942 3.912 46.838 26.282 3.27 23.873-25.966 42.756-46.46 30.477-22.855-9.87-22.855-46.41-.377-56.76zM155.37 402.446l5.042-2.472c85.407 56.39 204.773 56.39 290.24.056 13.413 3.862 3.433 20.387 3.274 29.88-8.157 28.06-3.06 66.42-33.32 82.354-50.968 28.705-113.143 30.257-169.685 21.348-29.56-6.38-64.754-14.693-81.01-42.917-7.3-27.358-11.806-55.578-16.362-83.528l1.823-4.72z"/></svg>